<?xml version="1.0" encoding="UTF-8" standalone="no"?>
<!-- Created with Inkscape (http://www.inkscape.org/) -->

<svg
   width="1200"
   height="628"
   viewBox="0 0 1200 628"
   version="1.1"
   id="svg1"
   xml:space="preserve"
   inkscape:version="1.3 (0e150ed6c4, 2023-07-21)"
   sodipodi:docname="drawing.svg"
   inkscape:export-filename="drawing.png"
   inkscape:export-xdpi="96"
   inkscape:export-ydpi="96"
   xmlns:inkscape="http://www.inkscape.org/namespaces/inkscape"
   xmlns:sodipodi="http://sodipodi.sourceforge.net/DTD/sodipodi-0.dtd"
   xmlns="http://www.w3.org/2000/svg"
   xmlns:svg="http://www.w3.org/2000/svg"><sodipodi:namedview
     id="namedview1"
     pagecolor="#ffffff"
     bordercolor="#000000"
     borderopacity="0.25"
     inkscape:showpageshadow="2"
     inkscape:pageopacity="0.0"
     inkscape:pagecheckerboard="0"
     inkscape:deskcolor="#d1d1d1"
     inkscape:document-units="px"
     inkscape:export-bgcolor="#ffffff00"
     inkscape:zoom="0.40696091"
     inkscape:cx="652.3968"
     inkscape:cy="528.30626"
     inkscape:window-width="1920"
     inkscape:window-height="1011"
     inkscape:window-x="0"
     inkscape:window-y="0"
     inkscape:window-maximized="1"
     inkscape:current-layer="layer1" /><defs
     id="defs1" /><g
     inkscape:label="Layer 1"
     inkscape:groupmode="layer"
     id="layer1"><rect
       style="fill:#ffc466;fill-opacity:1"
       id="rect1"
       width="1200"
       height="628"
       x="0"
       y="0"
       sodipodi:insensitive="true" /><text
       xml:space="preserve"
       style="font-style:normal;font-variant:normal;font-weight:normal;font-stretch:normal;font-size:96px;font-family:'Droid Sans';-inkscape-font-specification:'Droid Sans';fill:#000000;fill-opacity:1"
       x="99.303116"
       y="174.5304"
       id="text1"><tspan
         sodipodi:role="line"
         id="tspan1"
         x="99.303116"
         y="174.5304" /></text><g
       id="g72"
       transform="translate(-56.482465,-186)"><g
         id="g1"
         transform="translate(180.92711,249.86)"><path
           fill="#f77e00"
           d="m 116.46,4.14 h -104 c -4.42,0 -8,3.58 -8,8 v 104 c 0,4.42 3.58,8 8,8 h 104 c 4.42,0 8,-3.58 8,-8 v -104 c 0,-4.42 -3.58,-8 -8,-8 z"
           id="path1" /><path
           fill="#ff9800"
           d="m 110.16,4.14 h -98.2 a 7.555,7.555 0 0 0 -7.5,7.5 v 97.9 c -0.01,4.14 3.34,7.49 7.48,7.5 h 98.12 c 4.14,0.01 7.49,-3.34 7.5,-7.48 V 11.64 c 0.09,-4.05 -3.13,-7.41 -7.18,-7.5 z"
           id="path2" /><path
           fill="#ffbd52"
           d="m 40.16,13.04 c 0,-2.3 -1.6,-3 -10.8,-2.7 -7.7,0.3 -11.5,1.2 -13.8,4 -2.3,2.8 -2.9,8.5 -3,15.3 0,4.8 0,9.3 2.5,9.3 3.4,0 3.4,-7.9 6.2,-12.3 5.4,-8.7 18.9,-10.6 18.9,-13.6 z"
           opacity="0.75"
           id="path3" /><path
           fill="#fafafa"
           d="m 107.46,62.14 -39.9,-25.7 c -0.98,-0.58 -2.24,-0.26 -2.82,0.72 -0.23,0.39 -0.33,0.84 -0.28,1.28 v 22.3 l -37,-24.3 c -1.4,-0.9 -3,0.2 -3,2 v 51.4 c 0,1.8 1.7,2.9 3,2 l 37,-24.4 v 22.3 c -0.13,1.13 0.69,2.15 1.82,2.28 0.45,0.05 0.9,-0.05 1.28,-0.28 l 39.9,-25.6 c 1.1,-0.76 1.38,-2.28 0.62,-3.38 -0.17,-0.25 -0.38,-0.46 -0.62,-0.62 z"
           id="path4" /><path
           fill="#ffffff"
           d="m 107.36,66.14 -39.8,25.7 c -0.35,0.24 -0.78,0.34 -1.2,0.3 a 0.632,0.632 0 0 1 -0.4,-0.1 c -0.1,0 -0.2,-0.1 -0.4,-0.2 -0.24,-0.11 -0.45,-0.28 -0.6,-0.5 -0.12,-0.1 -0.2,-0.24 -0.2,-0.4 -0.2,-0.33 -0.31,-0.71 -0.3,-1.1 v -22.4 l -3,2 -34,22.4 c -0.35,0.24 -0.78,0.34 -1.2,0.3 a 0.632,0.632 0 0 1 -0.4,-0.1 c -0.1,0 -0.2,-0.1 -0.4,-0.2 -0.7,-0.46 -1.12,-1.26 -1.1,-2.1 v -51.3 c -0.08,-1 0.54,-1.91 1.5,-2.2 0.1,0 0.2,-0.1 0.4,-0.1 0.42,-0.04 0.85,0.06 1.2,0.3 l 34,22.4 3,2 v -22.4 c 0,-0.42 0.11,-0.83 0.3,-1.2 0.1,-0.1 0.1,-0.2 0.2,-0.4 0.17,-0.2 0.38,-0.36 0.6,-0.5 0.1,-0.1 0.2,-0.1 0.4,-0.2 0.2,-0.1 0.3,-0.1 0.4,-0.1 0.42,-0.04 0.85,0.06 1.2,0.3 l 39.8,25.8 c 1.1,0.76 1.38,2.28 0.62,3.38 -0.17,0.24 -0.38,0.45 -0.62,0.62 z"
           opacity="0.2"
           id="path5" /></g><text
         xml:space="preserve"
         style="font-style:normal;font-variant:normal;font-weight:normal;font-stretch:normal;font-size:85.3333px;font-family:'Droid Sans';-inkscape-font-specification:'Droid Sans';fill:#000000;fill-opacity:1"
         x="324.42126"
         y="342.18665"
         id="text2"><tspan
           sodipodi:role="line"
           id="tspan2"
           x="324.42126"
           y="342.18665"
           style="font-style:normal;font-variant:normal;font-weight:bold;font-stretch:normal;font-size:85.3333px;font-family:'Noto Sans';-inkscape-font-specification:'Noto Sans'">VideoSpeedup.com</tspan></text></g><text
       xml:space="preserve"
       style="font-style:normal;font-variant:normal;font-weight:normal;font-stretch:normal;font-size:64px;font-family:'Noto Sans';-inkscape-font-specification:'Noto Sans';text-align:center;text-anchor:middle;fill:#000000;fill-opacity:1"
       x="599.91254"
       y="294.56375"
       id="text73"><tspan
         sodipodi:role="line"
         x="599.91254"
         y="294.56375"
         style="font-weight:bold;font-size:64px"
         id="tspan81">Watch videos at 3x and faster</tspan></text><g
       id="g96"
       transform="translate(43.424958)"><text
         xml:space="preserve"
         style="font-style:normal;font-variant:normal;font-weight:normal;font-stretch:normal;font-size:64px;line-height:1.5;font-family:'Noto Sans';-inkscape-font-specification:'Noto Sans';text-align:center;text-anchor:middle;fill:#000000;fill-opacity:1"
         x="260.80859"
         y="437.56323"
         id="text91"><tspan
           sodipodi:role="line"
           id="tspan91"
           x="260.80859"
           y="437.56323"
           style="font-weight:bold;text-align:center;text-anchor:middle">Youtube</tspan><tspan
           sodipodi:role="line"
           x="260.80859"
           y="533.56323"
           id="tspan92"
           style="font-weight:bold;text-align:center;text-anchor:middle">Prime Video</tspan></text><text
         xml:space="preserve"
         style="font-style:normal;font-variant:normal;font-weight:normal;font-stretch:normal;font-size:64px;line-height:1.5;font-family:'Noto Sans';-inkscape-font-specification:'Noto Sans';text-align:center;text-anchor:middle;fill:#000000;fill-opacity:1"
         x="622.0791"
         y="437.88324"
         id="text91-7"><tspan
           sodipodi:role="line"
           x="622.0791"
           y="437.88324"
           style="font-weight:bold;text-align:center;text-anchor:middle"
           id="tspan93">Netflix</tspan><tspan
           sodipodi:role="line"
           x="622.0791"
           y="533.88324"
           style="font-weight:bold;text-align:center;text-anchor:middle"
           id="tspan96">Twitch</tspan></text><text
         xml:space="preserve"
         style="font-style:normal;font-variant:normal;font-weight:normal;font-stretch:normal;font-size:64px;line-height:1.5;font-family:'Noto Sans';-inkscape-font-specification:'Noto Sans';text-align:center;text-anchor:middle;fill:#000000;fill-opacity:1"
         x="916.82153"
         y="437.56323"
         id="text94"><tspan
           sodipodi:role="line"
           id="tspan94"
           x="916.82153"
           y="437.56323"
           style="font-weight:bold;text-align:center;text-anchor:middle">TikTok</tspan><tspan
           sodipodi:role="line"
           x="916.82153"
           y="533.56323"
           id="tspan95"
           style="font-weight:bold;text-align:center;text-anchor:middle">Disney+</tspan></text></g></g></svg>
